<?xml version="1.0" encoding="UTF-8"?>
<svg xmlns="http://www.w3.org/2000/svg" viewBox="0 0 1080 1080">
  <defs>
    <style>
      .cls-1 {
        fill: #050202;
      }
    </style>
  </defs>
  <g id="Dot_3" data-name="Dot 3">
    <circle class="cls-1" cx="701.17" cy="709.84" r="36"/>
  </g>
  <g id="_3_clip" data-name="3 clip">
    <g>
      <path class="cls-1" d="M637.11,468.2c.81,9.85,1.45,19.88,1.93,30.09,23.64,16.09,45.49,32.76,64.96,49.54,6.36-5.3,12.46-10.6,18.3-15.87-24.99-21.78-53.78-43.34-85.19-63.76Z"/>
      <path class="cls-1" d="M331.21,523.45c5.81-5.3,11.83-10.59,18.07-15.87-6.91-6.82-13.38-13.62-19.37-20.37-34.89-39.34-49.59-73.44-39.33-91.21,6.56-11.36,23.99-17.22,49.16-17.22,14.21,0,30.9,1.87,49.49,5.67,41.22,8.43,88.59,25.39,137.37,48.93,9.07-4.69,18.09-9.15,27.02-13.38-56.35-28.68-111.79-49.29-159.58-59.06-29.81-6.1-55.28-7.69-75.7-4.74-23.54,3.41-39.87,12.76-48.55,27.8-8.68,15.04-8.61,33.86,.2,55.95,7.65,19.16,21.76,40.42,41.95,63.19,5.98,6.74,12.41,13.52,19.25,20.32Z"/>
      <path class="cls-1" d="M810,640.05c-7.65-19.16-21.76-40.42-41.95-63.19-5.98-6.74-12.42-13.52-19.26-20.32-5.81,5.3-11.84,10.59-18.07,15.87,6.91,6.82,13.38,13.62,19.37,20.38,34.88,39.34,49.59,73.44,39.33,91.21-10.26,17.77-47.14,22.09-98.65,11.55-41.22-8.43-88.59-25.39-137.37-48.93-9.07,4.69-18.09,9.15-27.02,13.38,56.35,28.68,111.79,49.29,159.58,59.06,20.12,4.12,38.25,6.18,54.19,6.18,7.69,0,14.87-.48,21.51-1.44,23.54-3.41,39.87-12.76,48.55-27.8,8.68-15.04,8.61-33.86-.2-55.95Z"/>
      <path class="cls-1" d="M442.89,611.8c-.81-9.85-1.45-19.88-1.93-30.09-23.64-16.09-45.49-32.76-64.97-49.55-6.36,5.3-12.46,10.6-18.3,15.88,24.99,21.78,53.78,43.34,85.19,63.76Z"/>
    </g>
  </g>
  <g id="Dot_2" data-name="Dot 2">
    <circle class="cls-1" cx="312.33" cy="594.66" r="36"/>
  </g>
  <g id="_2_clip" data-name="2 clip">
    <g>
      <path class="cls-1" d="M416.57,688.96c-9.36,2.57-18.49,4.78-27.33,6.59-51.51,10.54-88.39,6.22-98.65-11.55-10.26-17.77,4.44-51.87,39.33-91.21,38.79-43.75,97.78-89.56,166.09-129,45.11-26.05,90.59-47.17,132.79-61.9-1.41-8.16-2.95-16.09-4.59-23.79-44.6,15.29-92.67,37.47-140.19,64.9-70.48,40.69-131.58,88.23-172.05,133.86-20.19,22.77-34.31,44.03-41.95,63.19-8.82,22.09-8.88,40.91-.2,55.95,8.68,15.04,25.02,24.39,48.55,27.8,6.64,.96,13.82,1.44,21.51,1.44,15.94,0,34.08-2.06,54.19-6.18,8.83-1.81,17.92-3.99,27.22-6.52-1.69-7.68-3.26-15.55-4.71-23.58Z"/>
      <path class="cls-1" d="M810.2,384c-8.68-15.04-25.02-24.39-48.55-27.8-20.42-2.96-45.88-1.36-75.7,4.74-8.83,1.81-17.92,3.99-27.22,6.52,1.69,7.68,3.25,15.55,4.7,23.58,9.36-2.57,18.49-4.78,27.33-6.59,18.59-3.8,35.28-5.67,49.49-5.67,25.17,0,42.61,5.86,49.16,17.22,10.26,17.77-4.44,51.87-39.33,91.21-38.79,43.75-97.78,89.56-166.09,129-45.11,26.04-90.59,47.17-132.78,61.9,1.41,8.16,2.95,16.09,4.6,23.79,44.59-15.29,92.67-37.47,140.19-64.9,70.48-40.69,131.58-88.23,172.04-133.86,20.19-22.77,34.31-44.03,41.95-63.19,8.82-22.09,8.88-40.91,.2-55.95Z"/>
    </g>
  </g>
  <g id="Dot_1" data-name="Dot 1">
    <circle class="cls-1" cx="606.5" cy="315.5" r="36"/>
  </g>
  <g id="_1_clip" data-name="1 clip">
    <g>
      <path class="cls-1" d="M472.71,358.62c2.45-9.39,5.11-18.4,7.96-26.96,16.63-49.88,38.81-79.66,59.33-79.66s42.7,29.78,59.33,79.66c18.49,55.47,28.67,129.46,28.67,208.34,0,52.09-4.44,102.05-12.79,145.95,7.77,2.85,15.41,5.5,22.9,7.92,9.06-46.27,13.89-98.99,13.89-153.86,0-81.39-10.62-158.07-29.91-215.93-9.62-28.87-20.98-51.72-33.75-67.93-14.72-18.68-30.99-28.15-48.35-28.15s-33.63,9.47-48.35,28.15c-12.77,16.2-24.12,39.06-33.75,67.93-2.85,8.55-5.5,17.52-7.97,26.84,7.5,2.38,15.09,4.94,22.78,7.71Z"/>
      <path class="cls-1" d="M607.29,721.37c-2.45,9.4-5.11,18.4-7.96,26.96-16.63,49.88-38.8,79.66-59.33,79.66s-42.7-29.78-59.33-79.66c-18.49-55.47-28.67-129.46-28.67-208.34,0-52.09,4.44-102.05,12.79-145.95-7.77-2.86-15.41-5.49-22.9-7.91-9.06,46.27-13.89,98.99-13.89,153.86,0,81.39,10.62,158.07,29.91,215.93,9.62,28.87,20.98,51.72,33.75,67.93,14.72,18.68,30.99,28.15,48.35,28.15s33.63-9.47,48.35-28.15c12.77-16.2,24.12-39.06,33.75-67.93,2.85-8.55,5.5-17.52,7.97-26.84-7.49-2.38-15.09-4.95-22.78-7.72Z"/>
    </g>
  </g>
  <g id="Dashes">
    <g>
      <path class="cls-1" d="M603.98,545.2l-124.5,71.88c.82,8.84,1.77,17.53,2.86,26.06l121.03-69.88c.35-9.27,.56-18.63,.61-28.07Z"/>
      <path class="cls-1" d="M476.31,562.92c.24,9.11,.62,18.14,1.14,27.06l126.25-72.89c-.24-9.11-.62-18.14-1.14-27.06l-126.25,72.89Z"/>
      <path class="cls-1" d="M476.63,506.73c-.35,9.27-.56,18.63-.61,28.07l124.5-71.88c-.82-8.84-1.77-17.53-2.86-26.06l-121.03,69.88Z"/>
    </g>
  </g>
</svg>